<?xml version="1.0" standalone="no"?>
<!DOCTYPE svg PUBLIC "-//W3C//DTD SVG 20010904//EN"
 "http://www.w3.org/TR/2001/REC-SVG-20010904/DTD/svg10.dtd">
<svg version="1.0" xmlns="http://www.w3.org/2000/svg"
 width="256.000000pt" height="256.000000pt" viewBox="0 0 256.000000 256.000000"
 preserveAspectRatio="xMidYMid meet">
<metadata>
Created by potrace 1.10, written by Peter Selinger 2001-2011
</metadata>
<g transform="translate(0.000000,256.000000) scale(0.100000,-0.100000)"
fill="#000000" stroke="none">
<path d="M816 2315 c-9 -33 -18 -69 -21 -80 -2 -11 -15 -58 -29 -105 -14 -47
-27 -99 -31 -117 -3 -18 -10 -45 -16 -60 -6 -15 -18 -62 -28 -103 -10 -41 -39
-151 -65 -245 -57 -211 -86 -318 -126 -465 -16 -63 -39 -146 -50 -185 -11 -38
-21 -82 -24 -96 -2 -14 -16 -63 -30 -108 -14 -45 -26 -84 -26 -87 0 -2 100 -3
222 -2 l223 3 17 65 c10 36 20 74 22 85 2 11 14 56 26 100 73 261 119 434 124
460 2 11 16 61 30 111 15 50 28 100 30 110 2 10 13 51 24 89 32 112 58 208
107 397 25 98 52 196 60 219 28 79 41 74 -204 74 l-219 0 -16 -60z m401 14 c8
-8 7 -21 -2 -47 -13 -37 -20 -61 -50 -182 -9 -36 -22 -83 -30 -105 -7 -22 -21
-76 -31 -120 -9 -44 -21 -87 -25 -95 -4 -8 -10 -32 -13 -54 -4 -21 -9 -43 -12
-48 -3 -5 -14 -42 -24 -81 -22 -84 -45 -170 -67 -247 -8 -30 -16 -60 -17 -67
-1 -7 -5 -16 -9 -19 -4 -4 -7 -20 -7 -36 0 -15 -4 -36 -9 -46 -5 -9 -14 -39
-21 -67 -14 -54 -58 -224 -84 -320 -31 -115 -10 -105 -216 -105 -115 0 -180 4
-180 10 0 6 9 43 20 82 11 40 20 83 20 95 0 13 3 23 8 23 4 0 16 37 26 83 10
45 29 116 41 157 13 41 28 100 35 130 7 30 19 78 27 105 23 78 70 253 78 290
2 11 9 36 14 55 5 19 18 67 29 106 11 40 23 77 27 84 4 6 8 24 10 38 2 15 12
61 23 102 11 41 30 113 42 160 36 138 22 130 218 130 108 0 172 -4 179 -11z"/>
<path d="M1532 2362 c-142 -42 -255 -195 -286 -387 -8 -49 -18 -155 -21 -235
-3 -80 -8 -158 -10 -175 -4 -24 -3 -26 4 -10 5 11 10 40 11 65 1 71 36 213 74
300 99 230 294 409 477 438 48 8 41 9 -75 13 -89 3 -143 0 -174 -9z m78 -29
c0 -5 -22 -23 -49 -41 -94 -64 -213 -200 -252 -289 -14 -32 -29 -44 -29 -22 0
29 27 110 52 157 47 88 127 163 203 190 36 12 75 15 75 5z"/>
<path d="M2273 2325 c0 -33 2 -45 4 -27 2 18 2 45 0 60 -2 15 -4 0 -4 -33z"/>
<path d="M1820 2350 c-14 -4 37 -8 118 -8 174 -2 200 -6 240 -40 101 -87 96
-293 -10 -372 -31 -24 -40 -25 -153 -23 -316 4 -482 3 -508 -2 -34 -7 -66 -26
-128 -77 -63 -52 -82 -50 -60 4 5 13 11 30 14 38 2 8 6 20 7 25 2 6 16 32 32
58 15 26 28 54 28 60 0 7 22 37 50 67 27 30 52 62 56 72 3 10 13 18 21 18 9 0
13 3 10 6 -4 4 3 15 15 26 12 10 19 20 16 23 -5 5 -118 -105 -118 -116 0 -4
-7 -14 -15 -22 -24 -24 -86 -135 -112 -201 -24 -61 -76 -257 -69 -263 2 -2 12
19 24 46 38 91 172 207 246 213 14 1 26 5 26 8 0 5 181 6 190 0 13 -7 400 -6
400 1 0 5 6 9 14 9 14 0 62 50 91 93 8 12 17 45 20 72 4 27 8 52 10 55 2 4 -5
37 -16 74 -24 81 -74 141 -127 156 -42 11 -274 12 -312 0z"/>
<path d="M1767 2304 c-31 -7 -70 -20 -87 -29 -34 -18 -54 -20 -45 -4 4 6 -3 5
-14 -3 -21 -13 -21 -13 -2 -16 11 -2 49 7 83 20 56 20 80 23 223 23 143 0 164
-2 195 -21 95 -55 113 -222 33 -306 -33 -35 -26 -45 10 -14 57 49 82 157 57
246 -5 20 -26 51 -45 70 -32 31 -43 35 -113 42 -119 10 -231 8 -295 -8z"/>
<path d="M1505 1792 c-60 -20 -111 -54 -152 -102 -33 -39 -84 -117 -87 -134
-1 -6 -12 -42 -25 -79 -13 -38 -21 -77 -18 -88 3 -10 2 -19 -3 -19 -4 0 -8
-84 -9 -187 0 -104 -1 -197 -2 -208 -4 -86 33 -167 98 -215 39 -29 43 -30 91
-20 60 13 99 52 131 129 19 45 22 65 16 114 -4 41 -3 57 5 52 7 -5 10 50 8
187 -3 162 0 204 15 262 23 83 67 177 80 169 6 -3 7 -2 4 4 -7 11 59 93 74 93
5 0 33 13 62 30 l52 30 -145 -1 c-108 0 -158 -5 -195 -17z m243 -19 c3 -10
-22 -13 -101 -13 -97 0 -159 -11 -181 -31 -5 -5 6 -4 25 1 41 12 156 13 163 2
3 -5 -10 -30 -29 -56 -44 -62 -82 -163 -94 -251 -5 -38 -13 -171 -16 -294 -7
-236 -13 -271 -57 -318 -12 -13 -17 -23 -12 -23 5 -1 -6 -7 -25 -16 -19 -8
-43 -13 -55 -11 -21 3 -68 26 -54 27 4 0 -6 13 -23 29 -52 51 -60 96 -54 347
2 122 9 244 15 271 14 61 77 192 96 200 8 3 14 10 14 15 0 33 109 114 175 131
42 11 208 2 213 -10z"/>
<path d="M1851 1783 c-28 -10 -68 -40 -111 -82 -103 -102 -147 -214 -154 -391
-2 -52 -1 -69 1 -38 l4 58 162 -7 c151 -6 165 -5 202 15 73 37 113 101 124
200 14 123 -57 249 -145 258 -22 2 -59 -4 -83 -13z m110 -34 c48 -34 89 -115
89 -177 0 -67 -38 -152 -84 -187 -34 -26 -82 -30 -278 -26 -69 1 -71 7 -46
109 35 139 123 251 225 288 51 18 60 17 94 -7z"/>
<path d="M1584 1075 c0 -55 1 -76 3 -47 2 29 2 74 0 100 -2 26 -3 2 -3 -53z"/>
<path d="M1052 652 c-149 -1 -231 -6 -227 -12 4 -6 208 -10 560 -10 304 0 560
-3 569 -6 18 -7 22 -54 6 -82 -9 -16 -20 -55 -57 -197 -27 -104 54 -95 -828
-95 l-773 0 -6 25 c-4 14 2 50 12 82 17 54 28 90 55 183 5 19 13 45 18 57 5
13 6 30 2 39 -7 19 -65 -133 -58 -153 2 -6 1 -14 -3 -17 -3 -4 -7 -12 -8 -19
-1 -7 -9 -32 -17 -57 -9 -25 -18 -56 -21 -70 -3 -14 -9 -40 -15 -57 l-10 -33
825 0 c524 0 823 3 819 10 -3 5 -1 17 4 27 5 10 18 50 29 88 11 39 31 106 44
150 12 44 22 86 22 93 -1 6 3 12 9 12 6 0 7 3 4 6 -3 4 -2 14 2 23 8 15 -23
16 -357 16 -202 0 -472 -1 -600 -3z"/>
</g>
</svg>
